<mxfile host="app.diagrams.net" modified="2024-05-07T08:27:38.677Z" agent="Mozilla/5.0 (Windows NT 10.0; Win64; x64; rv:125.0) Gecko/20100101 Firefox/125.0" version="24.3.1" etag="as3rP4VrgJ-2CDARYUx7" type="github">
  <diagram name="Page-1" id="7280gdRpsxA6P9gsulUL">
    <mxGraphModel>
      <root>
        <mxCell id="0" />
        <mxCell id="1" parent="0" />
      </root>
    </mxGraphModel>
  </diagram>
</mxfile>
